HIERARCHY
ROOT Root
{
  OFFSET 0.0 0.0 0.0
  CHANNELS 6 Xposition Yposition Zposition Zrotation Yrotation Xrotation
  JOINT Hips
  {
    OFFSET 0.0 100.0 0.0
    CHANNELS 6 Xposition Yposition Zposition Zrotation Yrotation Xrotation
    JOINT Spine1
    {
      OFFSET -0.013727 5.003763 -0.053727
      CHANNELS 3 Zrotation Yrotation Xrotation
      JOINT Spine2
      {
        OFFSET -0.0 7.125301 -0.029825
        CHANNELS 3 Zrotation Yrotation Xrotation
        JOINT Chest
        {
          OFFSET -1e-06 7.550063 -0.815971
          CHANNELS 3 Zrotation Yrotation Xrotation
          JOINT Neck1
          {
            OFFSET -0.181677 26.311295 -0.553348
            CHANNELS 3 Zrotation Yrotation Xrotation
            JOINT Neck2
            {
              OFFSET -3e-06 7.709397 2.302585
              CHANNELS 3 Zrotation Yrotation Xrotation
              JOINT Head
              {
                OFFSET -5e-06 6.128916 1.953709
                CHANNELS 3 Zrotation Yrotation Xrotation
                JOINT HeadEnd
                {
                  OFFSET 0.003598 16.065403 -1.835379
                  CHANNELS 3 Zrotation Yrotation Xrotation
                }
                JOINT Jaw
                {
                  OFFSET 0.002637 0.475592 3.094941
                  CHANNELS 3 Zrotation Yrotation Xrotation
                }
                JOINT LeftEye
                {
                  OFFSET 3.206381 5.380205 7.586883
                  CHANNELS 3 Zrotation Yrotation Xrotation
                }
                JOINT RightEye
                {
                  OFFSET -3.22244 5.361869 7.558234
                  CHANNELS 3 Zrotation Yrotation Xrotation
                }
              }
            }
          }
          JOINT LeftShoulder
          {
            OFFSET 1.621652 23.237164 5.113413
            CHANNELS 3 Zrotation Yrotation Xrotation
            JOINT LeftArm
            {
              OFFSET 14.919846 2e-06 -5.502326
              CHANNELS 3 Zrotation Yrotation Xrotation
              JOINT LeftForeArm
              {
                OFFSET 28.739307 0.0 -0.002588
                CHANNELS 3 Zrotation Yrotation Xrotation
                JOINT LeftHand
                {
                  OFFSET 27.093981 -1e-06 0.002609
                  CHANNELS 3 Zrotation Yrotation Xrotation
                  JOINT LeftHandThumb1
                  {
                    OFFSET 2.276482 -1.392045 3.191413
                    CHANNELS 3 Zrotation Yrotation Xrotation
                    JOINT LeftHandThumb2
                    {
                      OFFSET 4.012836 -1.828127 1.641654
                      CHANNELS 3 Zrotation Yrotation Xrotation
                      JOINT LeftHandThumb3
                      {
                        OFFSET 2.798515 0.0 -3e-06
                        CHANNELS 3 Zrotation Yrotation Xrotation
                        JOINT LeftHandThumbEnd
                        {
                          OFFSET 3.180793 -4e-06 4e-06
                          CHANNELS 3 Zrotation Yrotation Xrotation
                        }
                      }
                    }
                  }
                  JOINT LeftHandIndex1
                  {
                    OFFSET 3.247555 -0.531998 2.296169
                    CHANNELS 3 Zrotation Yrotation Xrotation
                    JOINT LeftHandIndex2
                    {
                      OFFSET 6.364578 0.01206 0.1786
                      CHANNELS 3 Zrotation Yrotation Xrotation
                      JOINT LeftHandIndex3
                      {
                        OFFSET 3.662364 0.0 0.0
                        CHANNELS 3 Zrotation Yrotation Xrotation
                        JOINT LeftHandIndex4
                        {
                          OFFSET 2.329242 4e-06 4e-06
                          CHANNELS 3 Zrotation Yrotation Xrotation
                          JOINT LeftHandIndexEnd
                          {
                            OFFSET 2.759615 -0.180537 -0.113024
                            CHANNELS 3 Zrotation Yrotation Xrotation
                          }
                        }
                      }
                    }
                  }
                  JOINT LeftHandMiddle1
                  {
                    OFFSET 3.163495 0.240981 1.000332
                    CHANNELS 3 Zrotation Yrotation Xrotation
                    JOINT LeftHandMiddle2
                    {
                      OFFSET 6.19078 -0.259278 -1.002548
                      CHANNELS 3 Zrotation Yrotation Xrotation
                      JOINT LeftHandMiddle3
                      {
                        OFFSET 4.35652 -4e-06 -1e-06
                        CHANNELS 3 Zrotation Yrotation Xrotation
                        JOINT LeftHandMiddle4
                        {
                          OFFSET 2.996877 -8e-06 0.0
                          CHANNELS 3 Zrotation Yrotation Xrotation
                          JOINT LeftHandMiddleEnd
                          {
                            OFFSET 2.304287 -0.294569 -0.031741
                            CHANNELS 3 Zrotation Yrotation Xrotation
                          }
                        }
                      }
                    }
                  }
                  JOINT LeftHandRing1
                  {
                    OFFSET 2.882643 -0.053652 -0.322543
                    CHANNELS 3 Zrotation Yrotation Xrotation
                    JOINT LeftHandRing2
                    {
                      OFFSET 5.854541 -0.486202 -1.373841
                      CHANNELS 3 Zrotation Yrotation Xrotation
                      JOINT LeftHandRing3
                      {
                        OFFSET 4.350578 0.0 3e-06
                        CHANNELS 3 Zrotation Yrotation Xrotation
                        JOINT LeftHandRing4
                        {
                          OFFSET 2.651321 7e-06 2e-06
                          CHANNELS 3 Zrotation Yrotation Xrotation
                          JOINT LeftHandRingEnd
                          {
                            OFFSET 1.936105 0.077687 -7.1e-05
                            CHANNELS 3 Zrotation Yrotation Xrotation
                          }
                        }
                      }
                    }
                  }
                  JOINT LeftHandPinky1
                  {
                    OFFSET 2.8655 -0.310005 -1.600378
                    CHANNELS 3 Zrotation Yrotation Xrotation
                    JOINT LeftHandPinky2
                    {
                      OFFSET 5.087849 -1.331141 -1.77123
                      CHANNELS 3 Zrotation Yrotation Xrotation
                      JOINT LeftHandPinky3
                      {
                        OFFSET 3.070974 4e-06 0.0
                        CHANNELS 3 Zrotation Yrotation Xrotation
                        JOINT LeftHandPinky4
                        {
                          OFFSET 1.549672 0.0 1e-06
                          CHANNELS 3 Zrotation Yrotation Xrotation
                          JOINT LeftHandPinkyEnd
                          {
                            OFFSET 1.944893 -0.157802 0.057219
                            CHANNELS 3 Zrotation Yrotation Xrotation
                          }
                        }
                      }
                    }
                  }
                }
              }
            }
          }
          JOINT RightShoulder
          {
            OFFSET -1.380118 23.180309 5.214158
            CHANNELS 3 Zrotation Yrotation Xrotation
            JOINT RightArm
            {
              OFFSET -15.037196 1.2e-05 -5.545604
              CHANNELS 3 Zrotation Yrotation Xrotation
              JOINT RightForeArm
              {
                OFFSET -28.736639 2e-06 -0.002597
                CHANNELS 3 Zrotation Yrotation Xrotation
                JOINT RightHand
                {
                  OFFSET -27.133619 -0.0 0.002613
                  CHANNELS 3 Zrotation Yrotation Xrotation
                  JOINT RightHandThumb1
                  {
                    OFFSET -2.274032 -1.383988 3.163127
                    CHANNELS 3 Zrotation Yrotation Xrotation
                    JOINT RightHandThumb2
                    {
                      OFFSET -4.011429 -1.827466 1.640914
                      CHANNELS 3 Zrotation Yrotation Xrotation
                      JOINT RightHandThumb3
                      {
                        OFFSET -2.794935 -4e-06 -3e-06
                        CHANNELS 3 Zrotation Yrotation Xrotation
                        JOINT RightHandThumbEnd
                        {
                          OFFSET -3.183852 4e-06 1e-06
                          CHANNELS 3 Zrotation Yrotation Xrotation
                        }
                      }
                    }
                  }
                  JOINT RightHandIndex1
                  {
                    OFFSET -3.253266 -0.520057 2.282866
                    CHANNELS 3 Zrotation Yrotation Xrotation
                    JOINT RightHandIndex2
                    {
                      OFFSET -6.341917 0.012471 0.178266
                      CHANNELS 3 Zrotation Yrotation Xrotation
                      JOINT RightHandIndex3
                      {
                        OFFSET -3.654871 -8e-06 -0.0
                        CHANNELS 3 Zrotation Yrotation Xrotation
                        JOINT RightHandIndex4
                        {
                          OFFSET -2.327586 0.0 1e-06
                          CHANNELS 3 Zrotation Yrotation Xrotation
                          JOINT RightHandIndexEnd
                          {
                            OFFSET -2.76179 -0.180656 -0.113078
                            CHANNELS 3 Zrotation Yrotation Xrotation
                          }
                        }
                      }
                    }
                  }
                  JOINT RightHandMiddle1
                  {
                    OFFSET -3.168106 0.246593 1.00103
                    CHANNELS 3 Zrotation Yrotation Xrotation
                    JOINT RightHandMiddle2
                    {
                      OFFSET -6.180828 -0.258836 -1.000895
                      CHANNELS 3 Zrotation Yrotation Xrotation
                      JOINT RightHandMiddle3
                      {
                        OFFSET -4.348901 0.0 -0.0
                        CHANNELS 3 Zrotation Yrotation Xrotation
                        JOINT RightHandMiddle4
                        {
                          OFFSET -3.00024 -4e-06 -2e-06
                          CHANNELS 3 Zrotation Yrotation Xrotation
                          JOINT RightHandMiddleEnd
                          {
                            OFFSET -2.30252 -0.29437 -0.031706
                            CHANNELS 3 Zrotation Yrotation Xrotation
                          }
                        }
                      }
                    }
                  }
                  JOINT RightHandRing1
                  {
                    OFFSET -2.88569 -0.067952 -0.308858
                    CHANNELS 3 Zrotation Yrotation Xrotation
                    JOINT RightHandRing2
                    {
                      OFFSET -5.854198 -0.48613 -1.373731
                      CHANNELS 3 Zrotation Yrotation Xrotation
                      JOINT RightHandRing3
                      {
                        OFFSET -4.33881 -4e-06 -0.0
                        CHANNELS 3 Zrotation Yrotation Xrotation
                        JOINT RightHandRing4
                        {
                          OFFSET -2.654903 -4e-06 4e-06
                          CHANNELS 3 Zrotation Yrotation Xrotation
                          JOINT RightHandRingEnd
                          {
                            OFFSET -1.933568 0.077527 -5.2e-05
                            CHANNELS 3 Zrotation Yrotation Xrotation
                          }
                        }
                      }
                    }
                  }
                  JOINT RightHandPinky1
                  {
                    OFFSET -2.866425 -0.342796 -1.584145
                    CHANNELS 3 Zrotation Yrotation Xrotation
                    JOINT RightHandPinky2
                    {
                      OFFSET -5.091371 -1.332055 -1.772385
                      CHANNELS 3 Zrotation Yrotation Xrotation
                      JOINT RightHandPinky3
                      {
                        OFFSET -3.062664 -4e-06 1e-06
                        CHANNELS 3 Zrotation Yrotation Xrotation
                        JOINT RightHandPinky4
                        {
                          OFFSET -1.546529 4e-06 -2e-06
                          CHANNELS 3 Zrotation Yrotation Xrotation
                          JOINT RightHandPinkyEnd
                          {
                            OFFSET -1.945119 -0.157718 0.057211
                            CHANNELS 3 Zrotation Yrotation Xrotation
                          }
                        }
                      }
                    }
                  }
                }
              }
            }
          }
        }
      }
    }
    JOINT LeftLeg
    {
      OFFSET 10.043214 -8.434526 2.595655
      CHANNELS 3 Zrotation Yrotation Xrotation
      JOINT LeftShin
      {
        OFFSET -1e-06 -43.221752 -0.802913
        CHANNELS 3 Zrotation Yrotation Xrotation
        JOINT LeftFoot
        {
          OFFSET 1e-06 -42.155094 -3.481523
          CHANNELS 3 Zrotation Yrotation Xrotation
          JOINT LeftToeBase
          {
            OFFSET 0.0 -5.059472 13.231529
            CHANNELS 3 Zrotation Yrotation Xrotation
            JOINT LeftToeEnd
            {
              OFFSET -0.009607 -1.647619 6.513017
              CHANNELS 3 Zrotation Yrotation Xrotation
            }
          }
        }
      }
    }
    JOINT RightLeg
    {
      OFFSET -10.047278 -8.29526 2.620317
      CHANNELS 3 Zrotation Yrotation Xrotation
      JOINT RightShin
      {
        OFFSET 1e-06 -43.362206 -0.805556
        CHANNELS 3 Zrotation Yrotation Xrotation
        JOINT RightFoot
        {
          OFFSET 2e-06 -42.117393 -3.478398
          CHANNELS 3 Zrotation Yrotation Xrotation
          JOINT RightToeBase
          {
            OFFSET -0.0 -5.079609 13.284196
            CHANNELS 3 Zrotation Yrotation Xrotation
            JOINT RightToeEnd
            {
              OFFSET 0.009532 -1.634378 6.460591
              CHANNELS 3 Zrotation Yrotation Xrotation
            }
          }
        }
      }
    }
  }
}
MOTION
Frames: 4
Frame Time: 0.03333333333333333
0.0 0.0 0.0 0.0 -0.0 0.0 1.683968 100.111603 3.628257 -0.964792 -0.061171 -4.831016 -0.119897 -0.087666 -0.85871 -0.420176 -0.901381 -4.793871 0.825424 -2.647851 12.725478 -1.023779 2.793875 0.546088 -1.133646 -1.956971 -3.544934 0.110632 -3.160625 -11.568239 7.7e-05 -2.3e-05 6e-06 0.032144 -0.014287 0.064866 0.648845 -3.76462 -10.420424 -0.58802 3.739117 -10.458096 -21.186865 -6.909421 8.217603 -58.346859 -6.912584 25.384546 0.089925 -18.267975 0.078567 2.704273 5.090783 -10.787733 -5.88211 9.86129 0.702592 -10.936878 -0.360574 7.156207 0.0 8.774829 0.0 -16.356684 17.906828 6.004511 -1.844034 2.498506 -2.507279 -10.163605 4.678947 4.62111 -20.976034 -3e-06 2e-06 -21.226294 2.451699 -3.594001 1e-06 -5e-06 -0.0 -1.362682 2.240799 -0.746324 -21.334929 0.584911 3.008325 -13.82122 -3e-06 1e-06 -23.887182 -0.249077 -0.839483 -60.506828 2.4481 -1.158904 -0.294025 1.679688 0.833256 -14.218217 0.093216 1.300579 -34.212067 -0.287561 0.967168 -20.033226 0.964538 1.212842 -1e-06 -2e-06 -0.0 -3.44039 0.788234 0.501656 -15.928192 -3.167309 2.999707 -6.338829 -1e-06 -1e-06 -18.123457 3.648185 -4.905674 -3e-06 0.0 -2e-06 18.370544 9.501955 8.039618 62.320251 7.550949 24.710602 0.685674 19.781538 0.34229 -5.892174 -0.939766 -9.002714 2.243545 -5.255041 -3.180158 14.282904 -0.826596 6.952505 -2e-06 -12.690616 0.0 15.912267 -17.439495 2.649681 1.665669 -1.955923 -2.878301 4.727803 -4.170591 4.993926 11.020538 3e-06 -3e-06 12.109064 -3.735719 -2.866788 -1e-06 -0.0 1e-06 1.291987 -1.928551 -1.49809 14.800142 0.567468 3.865606 14.242586 -1.341738 -6.660666 19.631987 0.143927 -0.648248 49.406673 -0.529273 -6.066201 0.35303 -1.511152 -0.031939 20.222811 3.684312 2.316627 18.787292 5e-06 -4e-06 10.751639 -0.479868 1.397906 -2e-06 -1e-06 -0.0 3.27381 0.305947 -0.580112 21.486834 11.830385 2.266129 8.162934 2e-06 -3e-06 18.399099 -3.798987 -4.940585 4e-06 -0.0 -1e-06 3.00013 8.386305 2.706426 0.014977 0.074313 8.57779 -0.907603 2.92593 -6.37192 1.660233 -1.851964 -0.985978 0.0 -1e-06 2e-06 0.35064 -7.706449 3.071013 0.045529 -0.131111 5.017931 1.464766 -0.312219 -3.568851 -1.413819 1.032117 -0.763239 0.0 0.0 -1e-06 
0.0 0.0 0.0 0.0 -0.0 0.0 1.635831 100.138161 3.58677 -0.991339 -0.113045 -4.704411 -0.155519 -0.141956 -0.835026 -0.404821 -0.844158 -4.776252 0.876766 -2.711753 12.735938 -0.991675 2.779212 0.491434 -1.095853 -1.907636 -3.507065 0.149244 -3.123461 -11.87892 7.7e-05 -2.3e-05 6e-06 0.030172 0.001266 0.06401 0.64582 -3.749274 -10.421221 -0.588735 3.754888 -10.460464 -21.044777 -6.988974 8.19918 -58.45612 -6.927306 25.159973 -0.037642 -18.344545 0.073552 2.785627 4.914063 -10.989679 -5.882113 9.861295 0.702593 -10.936881 -0.360573 7.156211 -0.0 8.774833 3e-06 -16.319094 17.861151 5.992286 -1.844034 2.498506 -2.507279 -10.16361 4.67895 4.621112 -20.976044 -1e-06 -0.0 -21.226307 2.451702 -3.594003 1e-06 -6e-06 -0.0 -1.362683 2.2408 -0.746322 -21.334934 0.584913 3.008324 -13.821228 -1e-06 1e-06 -23.887196 -0.249078 -0.839486 -60.41293 2.425385 -1.131263 -0.294025 1.679688 0.833255 -14.218223 0.093217 1.300581 -34.212082 -0.287561 0.967168 -20.033232 0.964539 1.212841 -1e-06 -2e-06 -1e-06 -3.440392 0.788234 0.501656 -15.928201 -3.16731 2.999708 -6.338832 -1e-06 -1e-06 -18.123466 3.648188 -4.905678 -3e-06 0.0 -1e-06 18.361401 9.550735 8.039428 62.42017 7.612322 24.470102 0.609354 19.80806 0.312626 -6.017848 -0.899061 -9.115704 2.243542 -5.255037 -3.180156 14.282887 -0.826596 6.952502 -2e-06 -12.690603 -0.0 15.995619 -17.474775 2.617764 1.665665 -1.955921 -2.878298 4.727798 -4.170587 4.993923 11.020523 2e-06 -1e-06 12.10905 -3.735716 -2.866785 -1e-06 -0.0 -0.0 1.291985 -1.928549 -1.498089 14.800125 0.567467 3.865608 14.242568 -1.341738 -6.660657 19.631968 0.143924 -0.648244 49.599545 -0.496449 -6.066911 0.353029 -1.511151 -0.03194 20.222786 3.684307 2.316632 18.78727 4e-06 -0.0 10.751625 -0.479868 1.397905 -2e-06 -0.0 1e-06 3.273806 0.305948 -0.580109 21.486809 11.830373 2.266133 8.162926 1e-06 -1e-06 18.399078 -3.798985 -4.940575 3e-06 1e-06 -2e-06 3.014308 8.237962 2.625808 -0.001886 0.043824 8.40239 -1.079783 3.148508 -6.266903 1.658462 -1.88379 -1.085922 -0.0 -0.0 2e-06 0.451638 -7.630957 3.074517 0.04013 -0.100035 4.627123 1.338664 -0.332705 -3.327183 -1.417656 1.030112 -0.87816 -0.0 -0.0 -1e-06 
0.0 0.0 0.0 0.0 -0.0 0.0 1.536232 100.149605 3.469549 -1.002473 -0.220596 -4.535768 -0.180405 -0.182856 -0.796705 -0.395919 -0.818581 -4.770994 0.929676 -2.736343 12.776966 -0.946629 2.768968 0.33764 -1.066298 -1.88738 -3.512901 0.205322 -3.172191 -12.158875 7.7e-05 -2.3e-05 6e-06 0.0285 -0.000623 0.06164 0.639669 -3.749183 -10.423409 -0.585777 3.750964 -10.464946 -20.864483 -7.085031 8.180239 -58.608994 -6.895372 24.982294 -0.126229 -18.48415 0.072427 2.848411 4.838295 -11.366159 -5.882106 9.861286 0.702591 -10.936873 -0.360576 7.156205 1e-06 8.774826 -1e-06 -16.291008 17.876471 5.988197 -1.844032 2.498505 -2.507277 -10.163601 4.678945 4.621109 -20.976023 -3e-06 2e-06 -21.226288 2.451697 -3.594 1e-06 -5e-06 -0.0 -1.362682 2.240798 -0.746323 -21.334915 0.584909 3.008323 -13.821216 -3e-06 2e-06 -23.887171 -0.249079 -0.839482 -60.379318 2.441399 -1.189551 -0.294024 1.679687 0.833256 -14.218209 0.093214 1.300582 -34.212048 -0.287566 0.96717 -20.033215 0.964534 1.212843 -1e-06 -2e-06 -0.0 -3.440389 0.788233 0.501657 -15.928187 -3.167311 2.999704 -6.338826 -2e-06 -1e-06 -18.123447 3.648183 -4.905671 -3e-06 1e-06 -2e-06 18.351633 9.5956 8.02392 62.534454 7.654551 24.082436 0.574415 19.815781 0.280223 -6.13991 -0.886993 -9.40204 2.243543 -5.255038 -3.180159 14.282894 -0.826597 6.952501 0.0 -12.690608 -1e-06 16.034405 -17.471125 2.602423 1.665667 -1.955922 -2.878299 4.7278 -4.170588 4.993925 11.020528 1e-06 -1e-06 12.109056 -3.735718 -2.866785 -1e-06 -0.0 1e-06 1.291986 -1.92855 -1.498089 14.800132 0.567466 3.865608 14.242576 -1.341739 -6.660659 19.631971 0.143924 -0.648247 49.673794 -0.472966 -6.084922 0.353029 -1.511151 -0.031939 20.222794 3.684307 2.316631 18.787273 2e-06 -3e-06 10.751629 -0.479868 1.397904 -1e-06 -1e-06 -0.0 3.273807 0.305946 -0.58011 21.486816 11.830374 2.266134 8.16293 1e-06 -2e-06 18.399088 -3.798988 -4.940578 4e-06 0.0 -1e-06 3.029805 8.103824 2.306211 -0.00712 0.021632 8.543879 -1.245453 3.35325 -6.251301 1.658391 -1.894792 -1.143325 -0.0 -0.0 2e-06 0.584435 -7.483186 2.762132 0.04143 -0.080298 4.727031 1.173886 -0.42873 -3.288363 -1.419674 1.038464 -0.934337 -0.0 -0.0 -1e-06 
0.0 0.0 0.0 0.0 -0.0 0.0 1.407383 100.160469 3.357792 -1.007364 -0.338085 -4.322187 -0.203037 -0.208474 -0.740163 -0.386979 -0.812477 -4.773371 0.975073 -2.740929 12.808352 -0.897565 2.755659 0.125597 -1.053454 -1.845111 -3.533325 0.303722 -3.196014 -12.535175 7.7e-05 -2.3e-05 6e-06 0.027467 -0.003352 0.058206 0.633802 -3.750399 -10.42967 -0.581867 3.746228 -10.472286 -20.666765 -7.169056 8.195874 -58.780464 -6.894992 24.853996 -0.180036 -18.55377 0.075165 2.926224 4.784093 -11.698354 -5.882114 9.861297 0.702591 -10.936886 -0.360575 7.156214 0.0 8.774835 -1e-06 -16.243206 17.864487 6.001797 -1.844035 2.498507 -2.50728 -10.163614 4.678951 4.621114 -20.976053 -3e-06 1e-06 -21.226315 2.451698 -3.594005 1e-06 -6e-06 1e-06 -1.362684 2.240802 -0.746325 -21.334944 0.584911 3.008327 -13.821235 -3e-06 2e-06 -23.887205 -0.249081 -0.839483 -60.362576 2.443691 -1.209873 -0.294026 1.67969 0.833256 -14.218228 0.093215 1.300582 -34.212097 -0.287564 0.967169 -20.033241 0.964536 1.212842 -1e-06 -2e-06 -0.0 -3.440393 0.788234 0.501655 -15.928208 -3.167313 2.999708 -6.338835 -2e-06 0.0 -18.123472 3.648185 -4.905677 -3e-06 0.0 -1e-06 18.331753 9.635983 8.018028 62.691364 7.69703 23.73542 0.505512 19.77828 0.245927 -6.164236 -0.934197 -9.623325 2.243544 -5.255042 -3.180159 14.282907 -0.826595 6.952507 -4e-06 -12.690619 1e-06 16.059183 -17.466984 2.604836 1.665668 -1.955922 -2.878302 4.727804 -4.170592 4.993929 11.020538 4e-06 -3e-06 12.109063 -3.735719 -2.866789 0.0 -0.0 0.0 1.291987 -1.92855 -1.498091 14.800142 0.567469 3.865608 14.242588 -1.341736 -6.660665 19.631989 0.143929 -0.648246 49.696159 -0.472673 -6.080514 0.353029 -1.511152 -0.031941 20.222815 3.684314 2.316631 18.787291 7e-06 -2e-06 10.751639 -0.479867 1.397907 -2e-06 -1e-06 1e-06 3.273811 0.305946 -0.580112 21.486839 11.830389 2.266134 8.162938 3e-06 -2e-06 18.399103 -3.798989 -4.940582 4e-06 0.0 -1e-06 3.060612 8.037297 1.935045 -0.005755 0.000662 8.702512 -1.393327 3.534769 -6.237669 1.656295 -1.900773 -1.195117 0.0 -0.0 2e-06 0.73613 -7.315755 2.368937 0.04081 -0.084571 4.899445 1.00575 -0.505666 -3.284982 -1.420779 1.033434 -0.982574 0.0 0.0 -1e-06 
